<svg xmlns="http://www.w3.org/2000/svg" width="1600" height="490" viewBox="0 0 1600 490"><defs><marker id="ar" markerWidth="12" markerHeight="12" refX="9" refY="6" orient="auto"><path d="M0,0 L12,6 L0,12 z" fill="#0B6B68"/></marker></defs><rect width="1600" height="490" fill="#F7F5F0"/><text x="200.0" y="30" font-family="Pretendard" font-size="28" font-weight="700" fill="#64757D" text-anchor="middle">지키고 싶은 것</text><text x="685.0" y="30" font-family="Pretendard" font-size="28" font-weight="700" fill="#64757D" text-anchor="middle">쓸 방법</text><text x="1130.0" y="30" font-family="Pretendard" font-size="28" font-weight="700" fill="#64757D" text-anchor="middle">핵심 손잡이</text><text x="1442.5" y="30" font-family="Pretendard" font-size="28" font-weight="700" fill="#64757D" text-anchor="middle">도출 III · 이 덱</text><rect x="10" y="46" width="380" height="64" fill="#071A1D" stroke="#071A1D" stroke-width="2"/><text x="200.0" y="89" font-family="Pretendard" font-size="31" font-weight="700" fill="#B7F34A" text-anchor="middle">잉여금 흔들림 한도</text><rect x="405" y="46" width="560" height="64" fill="#FFFFFF" stroke="#DDE3E2" stroke-width="2"/><text x="685.0" y="89" font-family="Pretendard" font-size="31" font-weight="400" fill="#102027" text-anchor="middle">고정 비중 + 리스크 예산</text><rect x="980" y="46" width="300" height="64" fill="#FFFFFF" stroke="#DDE3E2" stroke-width="2"/><text x="1130.0" y="89" font-family="Pretendard" font-size="31" font-weight="400" fill="#102027" text-anchor="middle">변동성 · VaR</text><rect x="1295" y="46" width="295" height="64" fill="#B7F34A" stroke="#B7F34A" stroke-width="2"/><text x="1442.5" y="89" font-family="Pretendard" font-size="31" font-weight="700" fill="#102027" text-anchor="middle">2절 (LDI)</text><rect x="10" y="120" width="380" height="64" fill="#071A1D" stroke="#071A1D" stroke-width="2"/><text x="200.0" y="163" font-family="Pretendard" font-size="31" font-weight="700" fill="#B7F34A" text-anchor="middle">계정별 최악 한도</text><rect x="405" y="120" width="560" height="64" fill="#FFFFFF" stroke="#DDE3E2" stroke-width="2"/><text x="685.0" y="163" font-family="Pretendard" font-size="31" font-weight="400" fill="#102027" text-anchor="middle">심리계정 → γ 번역</text><rect x="980" y="120" width="300" height="64" fill="#FFFFFF" stroke="#DDE3E2" stroke-width="2"/><text x="1130.0" y="163" font-family="Pretendard" font-size="31" font-weight="400" fill="#102027" text-anchor="middle">(H, α)</text><rect x="1295" y="120" width="295" height="64" fill="#B7F34A" stroke="#B7F34A" stroke-width="2"/><text x="1442.5" y="163" font-family="Pretendard" font-size="31" font-weight="700" fill="#102027" text-anchor="middle">4절 · 04부</text><rect x="10" y="194" width="380" height="64" fill="#071A1D" stroke="#071A1D" stroke-width="2"/><text x="200.0" y="237" font-family="Pretendard" font-size="31" font-weight="700" fill="#B7F34A" text-anchor="middle">반드시 지킬 바닥</text><rect x="405" y="194" width="560" height="64" fill="#FFFFFF" stroke="#DDE3E2" stroke-width="2"/><text x="685.0" y="237" font-family="Pretendard" font-size="31" font-weight="400" fill="#102027" text-anchor="middle">CPPI (바닥은 GHP로)</text><rect x="980" y="194" width="300" height="64" fill="#FFFFFF" stroke="#DDE3E2" stroke-width="2"/><text x="1130.0" y="237" font-family="Pretendard" font-size="31" font-weight="400" fill="#102027" text-anchor="middle">Floor · m</text><rect x="1295" y="194" width="295" height="64" fill="#B7F34A" stroke="#B7F34A" stroke-width="2"/><text x="1442.5" y="237" font-family="Pretendard" font-size="31" font-weight="700" fill="#102027" text-anchor="middle">3절 · 03부</text><rect x="10" y="268" width="380" height="64" fill="#071A1D" stroke="#071A1D" stroke-width="2"/><text x="200.0" y="311" font-family="Pretendard" font-size="31" font-weight="700" fill="#B7F34A" text-anchor="middle">바닥 위 희망 목표</text><rect x="405" y="268" width="560" height="64" fill="#FFFFFF" stroke="#DDE3E2" stroke-width="2"/><text x="685.0" y="311" font-family="Pretendard" font-size="31" font-weight="400" fill="#102027" text-anchor="middle">바닥을 지킨 CPPI</text><rect x="980" y="268" width="300" height="64" fill="#FFFFFF" stroke="#DDE3E2" stroke-width="2"/><text x="1130.0" y="311" font-family="Pretendard" font-size="31" font-weight="400" fill="#102027" text-anchor="middle">필수 비율 · m</text><rect x="1295" y="268" width="295" height="64" fill="#B7F34A" stroke="#B7F34A" stroke-width="2"/><text x="1442.5" y="311" font-family="Pretendard" font-size="31" font-weight="700" fill="#102027" text-anchor="middle">5절 · 04부</text><rect x="10" y="342" width="380" height="64" fill="#071A1D" stroke="#071A1D" stroke-width="2"/><text x="200.0" y="385" font-family="Pretendard" font-size="31" font-weight="700" fill="#B7F34A" text-anchor="middle">평생 소득</text><rect x="405" y="342" width="560" height="64" fill="#FFFFFF" stroke="#DDE3E2" stroke-width="2"/><text x="685.0" y="385" font-family="Pretendard" font-size="31" font-weight="400" fill="#102027" text-anchor="middle">RB + Flexicure · 상각 인출</text><rect x="980" y="342" width="300" height="64" fill="#FFFFFF" stroke="#DDE3E2" stroke-width="2"/><text x="1130.0" y="385" font-family="Pretendard" font-size="31" font-weight="400" fill="#102027" text-anchor="middle">β · 소득 바닥</text><rect x="1295" y="342" width="295" height="64" fill="#B7F34A" stroke="#B7F34A" stroke-width="2"/><text x="1442.5" y="385" font-family="Pretendard" font-size="31" font-weight="700" fill="#102027" text-anchor="middle">6–7절 · 05부</text><rect x="10" y="416" width="380" height="64" fill="#071A1D" stroke="#071A1D" stroke-width="2"/><text x="200.0" y="459" font-family="Pretendard" font-size="31" font-weight="700" fill="#B7F34A" text-anchor="middle">드문 큰 꼬리</text><rect x="405" y="416" width="560" height="64" fill="#FFFFFF" stroke="#DDE3E2" stroke-width="2"/><text x="685.0" y="459" font-family="Pretendard" font-size="31" font-weight="400" fill="#102027" text-anchor="middle">부분 보험 + 예비 자산</text><rect x="980" y="416" width="300" height="64" fill="#FFFFFF" stroke="#DDE3E2" stroke-width="2"/><text x="1130.0" y="459" font-family="Pretendard" font-size="31" font-weight="400" fill="#102027" text-anchor="middle">보험료 vs 버퍼</text><rect x="1295" y="416" width="295" height="64" fill="#B7F34A" stroke="#B7F34A" stroke-width="2"/><text x="1442.5" y="459" font-family="Pretendard" font-size="31" font-weight="700" fill="#102027" text-anchor="middle">8절 · 05부</text></svg>